<svg xmlns="http://www.w3.org/2000/svg" width="430" height="430" fill="none" viewBox="0 0 430 430"><circle cx="215" cy="215" r="167.5" fill="#1663c7"/><path fill="#1663c7" d="M298.007 360.518c-15.208 4.542-31.323 6.981-48.007 6.981-92.508 0-167.5-74.992-167.5-167.5 0-62.305 34.018-116.664 84.493-145.518C97.881 75.12 47.5 139.176 47.5 214.999c0 92.508 74.992 167.5 167.5 167.5 30.203 0 58.538-7.993 83.007-21.981" opacity=".5" style="mix-blend-mode:multiply"/><path fill="#fff" d="M125 183a3 3 0 0 1 3-3h34a3 3 0 0 1 3 3v114a3 3 0 0 1-3 3h-34a3 3 0 0 1-3-3z"/><path fill="#fff" d="M125 183v114a3 3 0 0 0 3 3h17V180h-17a3 3 0 0 0-3 3" opacity=".5" style="mix-blend-mode:multiply"/><path fill="#fff" d="M315 218.173V297a3 3 0 0 1-3 3h-34a3 3 0 0 1-3-3v-64.5c0-12.426-10.074-22.5-22.5-22.5S230 220.074 230 232.5V297a3 3 0 0 1-3 3h-34a3 3 0 0 1-3-3V183a3 3 0 0 1 3-3h34a3 3 0 0 1 3 3v12l11.86-9.488A47.97 47.97 0 0 1 271.827 175C295.671 175 315 194.329 315 218.173"/><path fill="#fff" d="M295 300v-67.5c0-12.426-10.074-22.5-22.5-22.5-3.592 0-6.988.842-10 2.339 7.409 3.682 12.5 11.327 12.5 20.161V297a3 3 0 0 0 3 3zm-85-120h-17a3 3 0 0 0-3 3v114a3 3 0 0 0 3 3h17z" opacity=".5" style="mix-blend-mode:multiply"/><circle cx="144.5" cy="132.5" r="22.5" fill="#fff"/><path fill="#fff" d="M145.338 110.015q-.417-.015-.838-.015c-12.426 0-22.5 10.074-22.5 22.5s10.074 22.5 22.5 22.5a22.4 22.4 0 0 0 14.162-5.015C146.624 149.544 137 139.646 137 127.5c0-7.059 3.251-13.36 8.338-17.485" opacity=".5" style="mix-blend-mode:multiply"/></svg>