<svg xmlns="http://www.w3.org/2000/svg" width="430" height="430" fill="none" viewBox="0 0 430 430"><path fill="#000" d="M215 47.5c-92.508 0-167.5 74.992-167.5 167.5 0 80.061 56.169 147.002 131.25 163.567v-3.081h75.826v2.311C327.984 360.015 382.5 293.874 382.5 215c0-92.508-74.992-167.5-167.5-167.5"/><path fill="#000" d="M298.007 360.519c-15.208 4.542-31.323 6.981-48.007 6.981-92.508 0-167.5-74.992-167.5-167.5 0-62.305 34.018-116.664 84.493-145.519C97.881 75.121 47.5 139.177 47.5 215c0 92.508 74.992 167.5 167.5 167.5 30.203 0 58.538-7.993 83.007-21.981" opacity=".5" style="mix-blend-mode:multiply"/><path fill="#fff" d="M130.765 326.308c15.356 12.285 35.166 7.666 46.5 3.5h2.993v-33h-2.993c-13.667 4.5-32.5 11-45.5-5-4.665-5.741-11.293-16.978-19.5-21.5-13.797-7.602-23 8-15.5 15.5 9 9 14.25 12.5 19 22 4.609 9.219 10 14.5 15 18.5"/><mask id="_coPYxfefSa" width="336" height="336" x="47" y="47" maskUnits="userSpaceOnUse" style="mask-type:alpha"><circle cx="215" cy="215" r="167.5" fill="#fff"/></mask><g fill="#fff" mask="url(#_coPYxfefSa)"><path d="M263.202 130.986c3.212-4.142 16.54-19.712 34.615-18.619a2.72 2.72 0 0 1 2.098 1.212c10.859 16.431 1.838 37.854.787 40.216 8.199 10.842 12.678 25.5 12.678 45.021 0 47.676-20.609 66.346-66.022 71.262 5.613 4.584 9.197 11.56 9.197 19.373v107.862h-79.29V289.451c0-7.811 3.582-14.786 9.194-19.37C140.923 265.17 120 246.502 120 198.816c0-19.681 4.605-34.42 13.001-45.288-1.463-3.39-9.625-24.017.905-39.949a2.72 2.72 0 0 1 2.097-1.212c18.046-1.091 31.36 14.426 34.6 18.599 13.389-3.457 29.003-4.832 46.307-4.832 17.339 0 32.94 1.381 46.292 4.852"/><path d="M207.265 397.313V289.451c0-7.811 3.582-14.786 9.194-19.37C170.923 265.17 150 246.502 150 198.816c0-19.681 4.605-34.42 13.001-45.288-1.248-2.893-7.372-18.33-2.605-32.695-6.157-4.737-14.575-9.06-24.395-8.466a2.72 2.72 0 0 0-2.095 1.212c-10.53 15.932-2.368 36.559-.905 39.949C124.605 164.396 120 179.135 120 198.816c0 47.686 20.923 66.354 66.459 71.265-5.612 4.584-9.194 11.559-9.194 19.37v107.862z" opacity=".5" style="mix-blend-mode:multiply"/></g><path fill="#fff" d="M130.765 326.308c15.356 12.285 35.166 7.666 46.5 3.5v-33c-13.667 4.5-32.5 11-45.5-5-4.665-5.741-11.293-16.978-19.5-21.5-13.797-7.602-23 8-15.5 15.5 9 9 14.25 12.5 19 22 4.609 9.219 10 14.5 15 18.5" opacity=".5" style="mix-blend-mode:multiply"/><path fill="#fff" d="M177.265 316.47c-11.58 3.44-28.208 5.47-41.5-5.163-5-4-10.391-9.281-15-18.5-3.657-7.314-7.611-11.072-13.343-16.521-1.714-1.629-3.586-3.408-5.657-5.479a9.2 9.2 0 0 1-1.254-1.556c-6.306 2.897-8.763 11.539-3.746 16.556a299 299 0 0 0 5.657 5.48c5.732 5.449 9.686 9.206 13.343 16.52 4.609 9.22 10 14.5 15 18.5 15.356 12.286 35.166 7.667 46.5 3.5z" opacity=".5" style="mix-blend-mode:multiply"/></svg>